<svg width="459" height="498" viewBox="0 0 459 498" fill="none" xmlns="http://www.w3.org/2000/svg">
<path fill-rule="evenodd" clip-rule="evenodd" d="M353.406 109.188C377.216 139.337 358.791 186.142 359.949 226.171C361.06 264.545 383.618 310.344 360.041 338.535C335.63 367.725 289.427 337.995 255.489 351.079C224.054 363.198 207.303 408.933 174.041 410.243C138.576 411.639 104.546 387.868 81.6114 357.926C58.5292 327.793 44.6069 286.973 49.6509 247.851C54.3452 211.443 85.0954 188.552 107.016 160.892C125.071 138.109 141.333 113.928 166.075 100.943C192.127 87.2695 220.582 84.9035 249.385 86.1713C285.608 87.7657 329.561 78.9955 353.406 109.188Z" fill="#FFC735" fill-opacity="0.43"/>
<path d="M99.8563 330.335C99.8563 330.335 95.3847 325.998 90.7591 324.516C86.1336 323.033 80.802 323.003 76.1946 321.611C71.5871 320.219 68.8353 319.047 68.8353 319.047L68.6 323.654L99.6662 332.939L120.92 326.429L123.038 321.651C120.722 322.844 118.294 323.748 115.797 324.345C111.171 325.557 105.994 325.557 103.124 326.779C100.255 328.001 99.8563 330.335 99.8563 330.335Z" fill="white" stroke="#263238" stroke-linecap="round" stroke-linejoin="round"/>
<path d="M68.1649 320.089C74.2376 322.144 80.4623 323.602 86.7667 324.446C91.5084 325.158 96.0107 327.183 99.8558 330.335C102.983 328.123 106.584 326.865 110.293 326.689C114.753 326.315 119.154 325.323 123.391 323.734L122.06 326.739L99.2312 331.687L67.6942 322.573L68.1649 320.089Z" fill="white" stroke="#263238" stroke-linecap="round" stroke-linejoin="round"/>
<path d="M67.3051 321.13C72.1302 323.176 77.186 324.481 82.3314 325.007C90.7316 325.708 99.6206 330.335 99.6206 330.335C103.059 328.416 106.833 327.35 110.682 327.21C115.001 327.169 119.298 326.526 123.472 325.297C123.342 325.777 123.31 326.282 123.377 326.778C123.444 327.273 123.61 327.745 123.862 328.162L99.5391 333.891L67.1422 323.474L67.3051 321.13Z" fill="white" stroke="#263238" stroke-linecap="round" stroke-linejoin="round"/>
<path d="M66.9073 323.043L98.5257 331.808V333.009L101.187 333.09V331.707L124.568 327.621C124.568 327.621 125.591 327.36 124.722 328.622C123.853 329.884 108.8 344.428 108.8 344.428L92.0898 346.331L66.7444 340.171L66.9073 323.043Z" fill="#FFC735"/>
<path opacity="0.3" d="M98.5267 333.029V331.808L66.9083 323.043L66.7544 340.231L92.0908 346.391L92.5434 346.341L99.2328 333.05L98.5267 333.029Z" fill="black"/>
<path d="M66.9073 323.043L98.5257 331.808V333.009L101.187 333.09V331.707L124.568 327.621C124.568 327.621 125.591 327.36 124.722 328.622C123.853 329.884 108.8 344.428 108.8 344.428L92.0898 346.331L66.7444 340.171L66.9073 323.043Z" stroke="#263238" stroke-linecap="round" stroke-linejoin="round"/>
<path d="M98.5257 333.029L91.5376 346.391L92.8773 346.481L101.187 333.11L98.5257 333.029Z" fill="#FFC735" stroke="#263238" stroke-linecap="round" stroke-linejoin="round"/>
<path d="M97.4031 414.491C97.4031 414.491 95.8823 418.017 93.8547 419.629C91.8271 421.242 89.2382 422.003 87.1925 423.556C86.0813 424.388 85.0172 425.294 84.0062 426.27L83.1915 423.205L96.8962 412.758L108.256 414.281L110.012 417.206C108.743 416.73 107.422 416.447 106.084 416.364C103.649 416.174 101.123 416.875 99.5212 416.444C99.0596 416.312 98.6301 416.069 98.2638 415.731C97.8976 415.393 97.6036 414.97 97.4031 414.491Z" fill="white" stroke="#263238" stroke-linecap="round" stroke-linejoin="round"/>
<path d="M83.5086 425.659C86.1121 423.493 88.9341 421.667 91.9178 420.22C94.2246 418.963 96.136 416.967 97.4033 414.491C99.1388 415.492 101.121 415.843 103.052 415.493C105.325 415.147 107.635 415.221 109.886 415.713L108.773 413.84L96.8964 413.64L82.9021 424.027L83.5086 425.659Z" fill="white" stroke="#263238" stroke-linecap="round" stroke-linejoin="round"/>
<path d="M82.9294 425.078C84.9104 423.101 87.194 421.531 89.6731 420.441C93.6559 418.838 97.2948 414.521 97.2948 414.521C99.1599 415.328 101.192 415.539 103.16 415.132C105.298 414.578 107.505 414.433 109.687 414.701C109.413 414.08 109.327 413.378 109.443 412.698L96.7155 412.137L82.4949 423.526L82.9294 425.078Z" fill="white" stroke="#263238" stroke-linecap="round" stroke-linejoin="round"/>
<path d="M82.4132 423.846L96.4981 413.67L96.308 412.859L97.6024 412.438L97.8106 413.369L109.832 412.969C109.832 412.969 110.366 412.969 109.75 412.248C109.135 411.526 99.6119 403.744 99.6119 403.744L91.1665 404.745L79.7429 412.308L82.4132 423.846Z" fill="#FFC735"/>
<path opacity="0.3" d="M96.3443 412.859L96.5344 413.67L82.4496 423.846L79.7521 412.278L91.1756 404.715L91.4019 404.685L96.6883 412.748L96.3443 412.859Z" fill="black"/>
<path d="M82.4132 423.846L96.4981 413.67L96.308 412.859L97.6024 412.438L97.8106 413.369L109.832 412.969C109.832 412.969 110.366 412.969 109.75 412.248C109.135 411.526 99.6119 403.744 99.6119 403.744L91.1665 404.745L79.7429 412.308L82.4132 423.846Z" stroke="#263238" stroke-linecap="round" stroke-linejoin="round"/>
<path d="M96.3441 412.858L90.913 404.785L91.5466 404.545L97.6386 412.438L96.3441 412.858Z" fill="#FFC735" stroke="#263238" stroke-linecap="round" stroke-linejoin="round"/>
<path d="M308.006 306.677L333.568 335.323L278.985 352.341L275.373 323.624L308.006 306.677Z" fill="#FFC735" stroke="#263238" stroke-linecap="round" stroke-linejoin="round"/>
<path d="M330.627 339.46L274.17 357.82L278.723 324.806L307.209 310.743L330.627 339.46Z" fill="white" stroke="#263238" stroke-linecap="round" stroke-linejoin="round"/>
<path d="M308.549 312.526L329.549 342.575L276.577 359.592L282.733 323.474L308.549 312.526Z" fill="white"/>
<path opacity="0.17" d="M308.549 312.526L329.549 342.575L276.577 359.592L282.733 323.474L308.549 312.526Z" fill="black"/>
<path d="M308.549 312.526L329.549 342.575L276.577 359.592L282.733 323.474L308.549 312.526Z" stroke="#263238" stroke-linecap="round" stroke-linejoin="round"/>
<path d="M308.549 312.526L298.918 349.526L261.325 362.117L275.772 328.061L308.549 312.526Z" fill="white" stroke="#263238" stroke-linecap="round" stroke-linejoin="round"/>
<path d="M296.247 346.571L259.994 360.043L258.917 354.414L292.5 341.093L296.247 346.571Z" fill="white" stroke="#263238" stroke-linecap="round" stroke-linejoin="round"/>
<path d="M307.616 307.488L331.695 335.173L330.626 339.46L308.549 312.526L296.247 346.571L292.5 341.093L307.616 307.488Z" fill="white" stroke="#263238" stroke-linecap="round" stroke-linejoin="round"/>
<path d="M308.006 306.677L292.636 342.134L257.179 355.456L275.374 323.624L308.006 306.677Z" fill="#FFC735"/>
<path opacity="0.3" d="M308.006 306.677L292.636 342.134L257.179 355.456L275.374 323.624L308.006 306.677Z" fill="black"/>
<path d="M308.006 306.677L292.636 342.134L257.179 355.456L275.374 323.624L308.006 306.677Z" stroke="#263238" stroke-linecap="round" stroke-linejoin="round"/>
<path d="M273.907 326.89L302.43 312.486" stroke="#263238" stroke-linecap="round" stroke-linejoin="round"/>
<path d="M189.244 409.613L215.422 373.976L161.419 371.171L157.119 401.11L189.244 409.613Z" fill="#FFC735" stroke="#263238" stroke-linecap="round" stroke-linejoin="round"/>
<path d="M212.589 370.57L156.748 366.914L160.477 399.036L188.547 405.727L212.589 370.57Z" fill="white" stroke="#263238" stroke-linecap="round" stroke-linejoin="round"/>
<path d="M189.923 403.574L211.593 367.706L159.192 364.48L164.451 399.317L189.923 403.574Z" fill="white"/>
<path opacity="0.17" d="M189.923 403.574L211.593 367.706L159.192 364.48L164.451 399.317L189.923 403.574Z" fill="black"/>
<path d="M189.923 403.574L211.593 367.706L159.192 364.48L164.451 399.317L189.923 403.574Z" stroke="#263238" stroke-linecap="round" stroke-linejoin="round"/>
<path d="M189.923 403.574L181.224 368.757L144.048 365.963L157.626 396.522L189.923 403.574Z" fill="white" stroke="#263238" stroke-linecap="round" stroke-linejoin="round"/>
<path d="M178.482 372.453L142.663 368.407L141.459 374.366L174.616 378.964L178.482 372.453Z" fill="white" stroke="#263238" stroke-linecap="round" stroke-linejoin="round"/>
<path d="M188.864 408.902L213.549 374.617L212.589 370.57L189.923 403.574L178.482 372.453L174.616 378.964L188.864 408.902Z" fill="white" stroke="#263238" stroke-linecap="round" stroke-linejoin="round"/>
<path d="M189.244 409.613L174.77 377.882L139.748 373.775L157.119 401.11L189.244 409.613Z" fill="#FFC735"/>
<path opacity="0.3" d="M189.244 409.613L174.77 377.882L139.748 373.775L157.119 401.11L189.244 409.613Z" fill="black"/>
<path d="M189.244 409.613L174.77 377.882L139.748 373.775L157.119 401.11L189.244 409.613Z" stroke="#263238" stroke-linecap="round" stroke-linejoin="round"/>
<path d="M154.449 397.163L182.971 403.804" stroke="#263238" stroke-linecap="round" stroke-linejoin="round"/>
<path d="M210.471 169.976C210.471 169.976 198.613 176.316 193.87 183.999C189.127 191.681 190.512 205.864 197.817 210.451C205.122 215.039 230.621 231.886 248.607 229.482C266.593 227.078 263.823 206.735 254.735 198.642C245.647 190.549 233.391 183.338 233.391 183.338C233.391 183.338 232.802 178.971 232.006 177.438C231.209 175.906 222.13 166.04 210.471 169.976Z" fill="#263238" stroke="#263238" stroke-linecap="round" stroke-linejoin="round"/>
<path d="M258.61 203.43C231.689 194.315 213.956 210.632 208.398 216.882C219.532 223.282 235.934 231.145 248.607 229.452C263.651 227.439 264.167 212.865 258.61 203.43Z" fill="white" stroke="#263238" stroke-linecap="round" stroke-linejoin="round"/>
<path d="M240.307 201.026C240.307 201.026 256.121 215.049 250.581 229.011" stroke="#263238" stroke-linecap="round" stroke-linejoin="round"/>
<path d="M188.403 163.866L182.066 196.569H187.162L199.727 170.797C199.727 170.797 197.273 162.534 188.403 163.866Z" fill="white" stroke="#263238" stroke-linecap="round" stroke-linejoin="round"/>
<path d="M268.042 148C262.855 140.989 256.003 134.489 243.448 133.377C243.448 133.377 232.748 133.006 218.193 139.857C206.814 145.206 194.658 156.885 188.403 163.896C193.997 165.469 197.328 168.003 199.736 170.827C202.216 168.213 204.379 165.939 205.973 164.507C211.331 159.689 219.197 155.623 219.197 155.623C219.197 155.623 210.661 168.574 208.987 171.909C207.312 175.245 208.489 180.613 217.351 182.096C226.213 183.578 228.394 181.725 231.906 179.501C235.418 177.278 239.772 175.245 241.447 175.245C244.794 175.507 248.115 174.442 250.816 172.24C255.161 168.904 257.007 159.469 258.51 158.728C259.542 158.217 268.675 171.398 275.79 181.294L276.406 180.944C279.501 179.181 281.918 175.585 283.575 172.42C277.818 163.115 271.4 152.548 268.042 148Z" fill="#FFC735" stroke="#263238" stroke-linecap="round" stroke-linejoin="round"/>
<path d="M238.053 139.597C238.053 139.597 234.504 149.042 241.61 152.618" stroke="#263238" stroke-linecap="round" stroke-linejoin="round"/>
<path d="M219.197 155.593L226.91 153.069" stroke="#263238" stroke-linecap="round" stroke-linejoin="round"/>
<path d="M219.098 172.069C219.098 172.069 223.959 176.817 235.337 171.448" stroke="#263238" stroke-linecap="round" stroke-linejoin="round"/>
<path d="M263.498 155.132C260.692 155.543 258.51 158.738 258.51 158.738C261.748 157.975 265.041 157.529 268.349 157.406" stroke="#263238" stroke-linecap="round" stroke-linejoin="round"/>
<path d="M219.451 156.374C219.451 156.374 224.674 156.374 229.716 156.164" stroke="#263238" stroke-linecap="round" stroke-linejoin="round"/>
<path d="M222.248 169.585C222.248 169.585 222.809 173.311 230.087 172.891" stroke="#263238" stroke-linecap="round" stroke-linejoin="round"/>
<path d="M241.61 136.522C241.61 136.522 240.442 143.183 241.275 146.698C242.108 150.214 245.122 154.291 247.304 150.034C249.485 145.777 250.644 141.019 250.644 138.746C250.644 136.472 243.113 132.265 241.61 136.522Z" fill="white" stroke="#263238" stroke-linecap="round" stroke-linejoin="round"/>
<path d="M258.51 128.188C258.51 128.188 263.19 127.077 267.209 121.337C271.228 115.598 266.041 114.867 264.367 109.318C262.692 103.769 268.585 105.612 260.058 95.9864C251.531 86.3609 237.636 89.6963 231.092 92.8414C224.547 95.9864 224.755 106.543 220.057 107.285C215.359 108.026 213.359 103.028 207.674 103.028C201.99 103.028 195.961 109.689 198.305 115.238C200.65 120.787 205.167 118.393 205.502 117.461C205.837 116.53 203.157 117.651 202.985 114.867C202.813 112.082 209.005 113.575 210.851 117.281C212.345 120.286 209.602 124.553 209.693 127.708C209.883 134.038 216.889 138.084 221.388 138.956C227.462 140.128 234.848 139.717 240.352 136.382C247.114 132.275 243.973 123.761 248.951 121.538C253.93 119.314 256.482 122.65 256.482 122.65L258.51 128.188Z" fill="#263238" stroke="#263238" stroke-linecap="round" stroke-linejoin="round"/>
<path d="M207.376 106.463C206.513 106.049 205.565 105.905 204.634 106.049C203.703 106.192 202.826 106.616 202.098 107.275" stroke="white" stroke-linecap="round" stroke-linejoin="round"/>
<path d="M252.02 111.652C252.02 111.652 252.02 100.634 245.032 98.3903C238.044 96.1467 230.06 106.123 226.023 112.413C221.986 118.703 216.066 117.201 211.712 110.57C211.302 109.931 210.848 109.328 210.354 108.767" stroke="white" stroke-linecap="round" stroke-linejoin="round"/>
<path d="M212.418 132.315C216.038 134.889 218.754 135.631 224.067 133.788C229.381 131.945 228.729 122.369 233.382 117.221C238.035 112.072 246.362 113.905 246.362 113.905C246.362 113.905 237.048 108.376 229.725 114.266C222.402 120.156 223.063 130.102 216.41 131.945" stroke="white" stroke-linecap="round" stroke-linejoin="round"/>
<path d="M256.681 112.794C256.681 112.794 263.018 110.951 262.674 104.691" stroke="white" stroke-linecap="round" stroke-linejoin="round"/>
<path d="M204.542 183.768C204.542 183.768 221.741 186.172 230.431 192.783" stroke="white" stroke-linecap="round" stroke-linejoin="round"/>
<path d="M253.052 115.177C251.98 114.837 250.843 114.846 249.776 115.201C248.709 115.556 247.756 116.243 247.032 117.181C244.19 120.506 244.317 122.189 241.945 124.262C241.238 124.946 240.346 125.354 239.408 125.421C238.471 125.488 237.539 125.211 236.758 124.633C235.754 124.082 234.586 124.452 234.251 127.037C233.916 129.621 237.093 131.664 237.6 131.664C238.104 131.694 238.606 131.758 239.103 131.854C239.103 131.854 239.103 136.482 241.945 139.256C244.787 142.031 250.481 146.478 254.328 145.557C258.175 144.635 259.678 134.819 259.678 129.821C259.537 124.753 258.635 119.747 257.007 115.007C255.831 112.082 253.052 115.177 253.052 115.177Z" fill="white" stroke="#263238" stroke-linecap="round" stroke-linejoin="round"/>
<path d="M249.874 126.426C249.874 127.427 249.549 128.289 249.132 128.289C248.716 128.289 248.381 127.457 248.381 126.426C248.381 125.394 248.716 124.573 249.132 124.573C249.549 124.573 249.874 125.404 249.874 126.426Z" fill="#263238"/>
<path d="M255.84 125.805C255.84 126.806 255.505 127.668 255.097 127.668C254.69 127.668 254.346 126.836 254.346 125.805C254.346 124.773 254.681 123.952 255.097 123.952C255.514 123.952 255.84 124.783 255.84 125.805Z" fill="#263238"/>
<path d="M246.326 122.67C246.326 122.67 247.439 120.817 250.246 121.668" stroke="#263238" stroke-linecap="round" stroke-linejoin="round"/>
<path d="M253.414 121.668C253.414 121.668 255.279 119.394 256.962 121.668" stroke="#263238" stroke-linecap="round" stroke-linejoin="round"/>
<path d="M253.233 125.805C253.233 125.805 253.414 129.941 254.536 129.941C255.659 129.941 255.279 131.794 253.785 132.415" stroke="#263238" stroke-linecap="round" stroke-linejoin="round"/>
<path d="M252.291 136.552C252.291 136.552 248.933 138.205 247.63 134.479" stroke="#263238" stroke-linecap="round" stroke-linejoin="round"/>
<path d="M253.079 227.98C253.079 227.98 234.07 209.53 214.373 203.25C194.676 196.97 172.01 199.924 152.322 194.025C132.634 188.125 121.301 180.002 121.301 180.002L120.296 199.564L252.454 239.068L342.865 211.383L351.872 191.08C351.872 191.08 340.864 197.35 321.176 202.519C301.488 207.687 279.429 207.677 267.073 212.815C254.717 217.954 253.079 227.98 253.079 227.98Z" fill="white" stroke="#263238" stroke-linecap="round" stroke-linejoin="round"/>
<path d="M118.295 184.419C118.295 184.419 140.346 199.193 190.023 204.362C222.746 207.757 253.079 227.98 253.079 227.98C266.37 218.576 281.672 213.227 297.433 212.475C323.458 211.373 353.148 199.924 353.148 199.924L347.491 212.815L250.408 233.849L116.295 195.087L118.295 184.419Z" fill="white" stroke="#263238" stroke-linecap="round" stroke-linejoin="round"/>
<path d="M114.629 188.857C133.397 198.236 153.484 203.969 174.01 205.804C209.702 208.759 252.074 227.95 252.074 227.95C252.074 227.95 274.423 214.668 299.144 214.668C317.505 214.495 335.774 211.766 353.519 206.545C352.968 208.585 352.831 210.736 353.119 212.841C353.407 214.947 354.112 216.956 355.185 218.725L251.739 243.114L113.96 198.793L114.629 188.857Z" fill="white" stroke="#263238" stroke-linecap="round" stroke-linejoin="round"/>
<path d="M115.299 197.621L247.403 234.26V239.428L258.745 239.799V233.849L358.163 216.501C358.163 216.501 362.499 215.389 358.833 220.928C355.167 226.467 291.106 288.117 291.106 288.117L220.048 296.24L112.285 270.068L112.928 199.644C112.93 199.325 112.997 199.01 113.126 198.724C113.254 198.438 113.439 198.188 113.668 197.993C113.896 197.798 114.162 197.663 114.445 197.598C114.727 197.534 115.02 197.542 115.299 197.621Z" fill="#B4D51E"/>
<path opacity="0.3" d="M247.404 239.428V234.26L112.956 196.98L112.295 270.068L220.049 296.28L221.977 296.06L250.418 239.528L247.404 239.428Z" fill="black"/>
<path d="M115.299 197.621L247.403 234.26V239.428L258.745 239.799V233.849L358.163 216.501C358.163 216.501 362.499 215.389 358.833 220.928C355.167 226.467 291.106 288.117 291.106 288.117L220.048 296.24L112.285 270.068L112.928 199.644C112.93 199.325 112.997 199.01 113.126 198.724C113.254 198.438 113.439 198.188 113.668 197.993C113.896 197.798 114.162 197.663 114.445 197.598C114.727 197.534 115.02 197.542 115.299 197.621Z" stroke="#263238" stroke-linecap="round" stroke-linejoin="round"/>
<path d="M247.403 239.428L217.713 296.28L223.388 296.641L258.745 239.799L247.403 239.428Z" fill="#B4D51E" stroke="#263238" stroke-linecap="round" stroke-linejoin="round"/>
<path d="M346.495 218.825C346.495 218.825 355.357 220.658 353.51 227.198L358.833 220.948C358.833 220.948 361.268 217.593 360.154 216.942C359.041 216.291 346.495 218.825 346.495 218.825Z" fill="#263238"/>
<path d="M127.546 201.337C127.546 201.337 115.009 205.173 113.063 215.54L112.954 199.644C112.954 199.644 113.334 197.25 115.317 197.641C117.299 198.031 127.546 201.337 127.546 201.337Z" fill="#263238"/>
<path d="M112.413 265.2L118.713 271.841L112.295 270.068L112.413 265.2Z" fill="#263238"/>
<path d="M286.571 288.588L295.116 283.94L290.617 288.257L286.571 288.588Z" fill="#263238"/>
<path d="M283.575 172.43L307.617 204.322L301.561 205.383L275.79 181.344C275.79 181.344 282.462 176.507 283.575 172.43Z" fill="white" stroke="#263238" stroke-linecap="round" stroke-linejoin="round"/>
<path d="M176.961 193.644C176.961 193.644 175.757 192.032 175.449 193.474C175.142 194.916 172.417 199.924 174.544 200.275C176.671 200.626 177.875 194.906 177.875 194.906L176.961 193.644Z" fill="white" stroke="#263238" stroke-linecap="round" stroke-linejoin="round"/>
<path d="M179.839 193.454C179.839 193.454 178.626 191.841 178.328 193.274C178.029 194.706 175.295 199.724 177.423 200.085C179.55 200.445 180.763 194.706 180.763 194.706L179.839 193.454Z" fill="white" stroke="#263238" stroke-linecap="round" stroke-linejoin="round"/>
<path d="M182.727 193.334C182.727 193.334 181.288 191.541 180.917 193.133C180.546 194.726 177.296 200.295 179.84 200.696C182.383 201.096 183.795 194.686 183.795 194.686L182.727 193.334Z" fill="white" stroke="#263238" stroke-linecap="round" stroke-linejoin="round"/>
<path d="M185.244 193.935L190.096 199.103H184.348L185.244 193.935Z" fill="white" stroke="#263238" stroke-linecap="round" stroke-linejoin="round"/>
<path d="M185.244 193.935C185.244 193.935 183.804 192.142 183.433 193.734C183.062 195.327 179.813 200.896 182.356 201.287C184.9 201.677 186.312 195.277 186.312 195.277L185.244 193.935Z" fill="white" stroke="#263238" stroke-linecap="round" stroke-linejoin="round"/>
<path d="M314.143 198.572C314.143 198.572 315.112 196.769 315.619 198.132C316.126 199.494 319.52 203.981 317.484 204.702C315.447 205.423 313.428 199.974 313.428 199.974L314.143 198.572Z" fill="white" stroke="#263238" stroke-linecap="round" stroke-linejoin="round"/>
<path d="M311.301 198.873C311.301 198.873 312.269 197.07 312.776 198.432C313.283 199.794 316.687 204.281 314.641 205.003C312.595 205.724 310.586 200.275 310.586 200.275L311.301 198.873Z" fill="white" stroke="#263238" stroke-linecap="round" stroke-linejoin="round"/>
<path d="M308.44 199.263C308.44 199.263 309.608 197.26 310.187 198.753C310.767 200.245 314.713 205.203 312.324 206.034C309.934 206.866 307.571 200.826 307.571 200.826L308.44 199.263Z" fill="white" stroke="#263238" stroke-linecap="round" stroke-linejoin="round"/>
<path d="M306.042 200.295L301.977 206.245L307.662 205.243L306.042 200.295Z" fill="white" stroke="#263238" stroke-linecap="round" stroke-linejoin="round"/>
<path d="M306.042 200.295C306.042 200.295 307.2 198.292 307.789 199.784C308.377 201.277 312.315 206.225 309.925 207.056C307.535 207.887 305.173 201.858 305.173 201.858L306.042 200.295Z" fill="white" stroke="#263238" stroke-linecap="round" stroke-linejoin="round"/>
<path d="M141.133 253.791L146.926 252.79L141.133 251.788C140.623 251.703 140.151 251.439 139.786 251.035C139.421 250.631 139.183 250.109 139.106 249.545L138.2 243.124L137.295 249.545C137.218 250.108 136.981 250.629 136.618 251.032C136.255 251.436 135.785 251.701 135.277 251.788L129.474 252.79L135.277 253.791C135.783 253.883 136.251 254.15 136.614 254.552C136.976 254.955 137.214 255.474 137.295 256.035L138.2 262.455L139.106 256.035C139.187 255.472 139.427 254.953 139.791 254.55C140.155 254.147 140.625 253.881 141.133 253.791Z" fill="white"/>
<path d="M97.8557 297.282L103.658 296.28L97.8557 295.278C97.3478 295.187 96.8786 294.921 96.5148 294.519C96.1509 294.116 95.9106 293.597 95.8281 293.035L94.9229 286.614L94.0177 293.035C93.9391 293.599 93.7001 294.12 93.3355 294.524C92.9709 294.927 92.4996 295.191 91.99 295.278L86.1877 296.28L91.99 297.282C92.4996 297.369 92.9709 297.633 93.3355 298.037C93.7001 298.44 93.9391 298.961 94.0177 299.525L94.9229 305.946L95.8281 299.525C95.9106 298.963 96.1509 298.444 96.5148 298.042C96.8786 297.639 97.3478 297.373 97.8557 297.282Z" fill="#463C74"/>
<path opacity="0.5" d="M97.8557 297.282L103.658 296.28L97.8557 295.278C97.3478 295.187 96.8786 294.921 96.5148 294.519C96.1509 294.116 95.9106 293.597 95.8281 293.035L94.9229 286.614L94.0177 293.035C93.9391 293.599 93.7001 294.12 93.3355 294.524C92.9709 294.927 92.4996 295.191 91.99 295.278L86.1877 296.28L91.99 297.282C92.4996 297.369 92.9709 297.633 93.3355 298.037C93.7001 298.44 93.9391 298.961 94.0177 299.525L94.9229 305.946L95.8281 299.525C95.9106 298.963 96.1509 298.444 96.5148 298.042C96.8786 297.639 97.3478 297.373 97.8557 297.282Z" fill="white"/>
<path d="M242.325 324.055L248.127 323.053L242.325 322.052C241.816 321.965 241.346 321.702 240.982 321.301C240.617 320.899 240.377 320.38 240.297 319.818L239.392 313.398L238.487 319.818C238.406 320.38 238.166 320.899 237.802 321.301C237.438 321.702 236.967 321.965 236.459 322.052L230.657 323.053L236.459 324.055C236.967 324.141 237.438 324.404 237.802 324.806C238.166 325.207 238.406 325.727 238.487 326.289L239.392 332.709L240.297 326.289C240.377 325.727 240.617 325.207 240.982 324.806C241.346 324.404 241.816 324.141 242.325 324.055Z" fill="#463C74"/>
<path opacity="0.5" d="M242.325 324.055L248.127 323.053L242.325 322.052C241.816 321.965 241.346 321.702 240.982 321.301C240.617 320.899 240.377 320.38 240.297 319.818L239.392 313.398L238.487 319.818C238.406 320.38 238.166 320.899 237.802 321.301C237.438 321.702 236.967 321.965 236.459 322.052L230.657 323.053L236.459 324.055C236.967 324.141 237.438 324.404 237.802 324.806C238.166 325.207 238.406 325.727 238.487 326.289L239.392 332.709L240.297 326.289C240.377 325.727 240.617 325.207 240.982 324.806C241.346 324.404 241.816 324.141 242.325 324.055Z" fill="white"/>
<path d="M90.4332 263.127L94.2712 262.455L90.4332 261.784C90.0965 261.727 89.785 261.552 89.5441 261.286C89.3032 261.019 89.1454 260.675 89.0935 260.302L88.4961 256.065L87.8896 260.302C87.8378 260.675 87.6799 261.019 87.439 261.286C87.1981 261.552 86.8867 261.727 86.5499 261.784L82.7119 262.455L86.5499 263.127C86.8867 263.184 87.1981 263.359 87.439 263.625C87.6799 263.892 87.8378 264.236 87.8896 264.609L88.4961 268.846L89.0935 264.609C89.1454 264.236 89.3032 263.892 89.5441 263.625C89.785 263.359 90.0965 263.184 90.4332 263.127Z" fill="#463C74"/>
<path opacity="0.5" d="M90.4332 263.127L94.2712 262.455L90.4332 261.784C90.0965 261.727 89.785 261.552 89.5441 261.286C89.3032 261.019 89.1454 260.675 89.0935 260.302L88.4961 256.065L87.8896 260.302C87.8378 260.675 87.6799 261.019 87.439 261.286C87.1981 261.552 86.8867 261.727 86.5499 261.784L82.7119 262.455L86.5499 263.127C86.8867 263.184 87.1981 263.359 87.439 263.625C87.6799 263.892 87.8378 264.236 87.8896 264.609L88.4961 268.846L89.0935 264.609C89.1454 264.236 89.3032 263.892 89.5441 263.625C89.785 263.359 90.0965 263.184 90.4332 263.127Z" fill="white"/>
<path d="M339.416 272.502L343.254 271.841L339.416 271.17C339.08 271.111 338.769 270.936 338.528 270.669C338.288 270.403 338.129 270.059 338.076 269.687L337.47 265.44L336.872 269.687C336.819 270.059 336.661 270.403 336.42 270.669C336.179 270.936 335.869 271.111 335.533 271.17L331.695 271.841L335.533 272.502C335.869 272.561 336.179 272.736 336.42 273.002C336.661 273.268 336.819 273.612 336.872 273.984L337.47 278.231L338.076 273.984C338.129 273.612 338.288 273.268 338.528 273.002C338.769 272.736 339.08 272.561 339.416 272.502Z" fill="#463C74"/>
<path opacity="0.5" d="M339.416 272.502L343.254 271.841L339.416 271.17C339.08 271.111 338.769 270.936 338.528 270.669C338.288 270.403 338.129 270.059 338.076 269.687L337.47 265.44L336.872 269.687C336.819 270.059 336.661 270.403 336.42 270.669C336.179 270.936 335.869 271.111 335.533 271.17L331.695 271.841L335.533 272.502C335.869 272.561 336.179 272.736 336.42 273.002C336.661 273.268 336.819 273.612 336.872 273.984L337.47 278.231L338.076 273.984C338.129 273.612 338.288 273.268 338.528 273.002C338.769 272.736 339.08 272.561 339.416 272.502Z" fill="white"/>
<path d="M164.016 237.205L167.773 236.554L164.016 235.903C163.687 235.845 163.382 235.674 163.146 235.413C162.91 235.152 162.755 234.815 162.704 234.45L162.106 230.283L161.518 234.45C161.465 234.814 161.31 235.151 161.074 235.411C160.839 235.672 160.535 235.844 160.206 235.903L156.44 236.554L160.206 237.205C160.535 237.263 160.839 237.435 161.074 237.696C161.31 237.957 161.465 238.293 161.518 238.657L162.07 242.864L162.668 238.697C162.714 238.319 162.871 237.969 163.115 237.699C163.358 237.43 163.675 237.256 164.016 237.205Z" fill="white"/>
<path d="M288.472 278.331L292.237 277.67L288.472 277.019C288.143 276.96 287.839 276.789 287.603 276.528C287.367 276.267 287.212 275.931 287.159 275.567L286.571 271.4L285.982 275.567C285.929 275.931 285.774 276.267 285.538 276.528C285.303 276.789 284.999 276.96 284.67 277.019L280.904 277.67L284.67 278.331C284.999 278.388 285.304 278.56 285.54 278.821C285.776 279.082 285.931 279.419 285.982 279.783L286.571 283.94L287.159 279.783C287.211 279.419 287.366 279.082 287.601 278.821C287.837 278.56 288.142 278.388 288.472 278.331Z" fill="white"/>
</svg>
